<?xml version="1.0" standalone="no"?>
<!DOCTYPE svg PUBLIC "-//W3C//DTD SVG 1.1//EN" "http://www.w3.org/Graphics/SVG/1.1/DTD/svg11.dtd" >
<svg xmlns="http://www.w3.org/2000/svg" xmlns:xlink="http://www.w3.org/1999/xlink" version="1.1">
<metadata>
Created by FontForge 20161003 at Sun Feb 11 22:54:19 2018
 By www-data
(c) Kash Singh, Cyrillic glyphs added by Sergiy Tkachenko / 4thfebruary
</metadata>
<defs>
<font id="Marske" horiz-adv-x="500" >
  <font-face 
    font-family="Marske"
    font-weight="500"
    font-stretch="normal"
    units-per-em="1000"
    panose-1="2 0 0 0 0 0 0 0 0 0"
    ascent="750"
    descent="-250"
    x-height="617"
    cap-height="616"
    bbox="-0.263158 -200 710 751"
    underline-thickness="50"
    underline-position="-150"
    unicode-range="U+0020-0491"
  />
<missing-glyph horiz-adv-x="250" 
 />
    <glyph glyph-name=".notdef" horiz-adv-x="250" 
 />
    <glyph glyph-name=".null" horiz-adv-x="0" 
 />
    <glyph glyph-name="nonmarkingreturn" horiz-adv-x="333" 
 />
    <glyph glyph-name="space" unicode=" " horiz-adv-x="250" 
 />
    <glyph glyph-name="space" unicode="&#xa0;" horiz-adv-x="250" 
 />
    <glyph glyph-name="zero" unicode="0" 
d="M423 71l-62 -62q-9 -9 -22 -9h-247q-14 0 -21 9l-62 62q-9 7 -9 21v31q0 13 9 22l361 362v4l-44 44h-221l-43 -44v-264q0 -13 -9 -22t-22 -9t-22 9t-9 22v277q0 13 9 22l62 62q7 9 21 9h247q13 0 22 -9l62 -62q9 -10 9 -22v-30q0 -14 -9 -21l-361 -362v-6l43 -43h221
l44 43v265q0 13 9 22t22 9t22 -9t9 -22v-278q0 -12 -9 -21z" />
    <glyph glyph-name="one" unicode="1" horiz-adv-x="284" 
d="M185 0h-77h-77q-13 0 -22 9t-9 22t9 22t22 9h46v493h-46q-13 0 -22 9t-9 22t9 22t22 9h77q13 0 22 -9t9 -22v-524h46q13 0 22 -9t9 -22t-9 -22t-22 -9z" />
    <glyph glyph-name="two" unicode="2" 
d="M423 71l-62 -62q-9 -9 -22 -9h-308q-13 0 -22 9t-9 22v61q0 14 9 22l361 361v36l-44 44h-221l-43 -44v-18q0 -13 -9 -21.5t-22 -8.5t-22 8.5t-9 21.5v31q0 13 9 22l62 62q7 9 21 9h247q13 0 22 -9l62 -62q9 -10 9 -22v-61q0 -11 -9 -22l-361 -361v-18h264l44 43v18
q0 13 9 22t22 9t22 -9t9 -22v-31q0 -12 -9 -21z" />
    <glyph glyph-name="three" unicode="3" horiz-adv-x="501" 
d="M423 418l-51 -51q-9 -9 -22 -9t-22 9t-9 21.5t9 21.5l42 42v103h-308v-69q0 -13 -9 -22t-22 -9t-22 9t-9 22v100q0 13 9 22t22 9h370q13 0 22 -9t9 -22v-147q0 -12 -9 -21zM423 71l-62 -62q-9 -9 -22 -9h-247q-14 0 -21 9l-62 62q-9 7 -9 21v31q0 13 9 22t22 9t22 -9
t9 -22v-18l43 -43h221l44 43v128l-44 44h-124q-13 0 -22 9t-9 22t9 22t22 9h137q13 0 22 -9l62 -62q9 -11 9 -22v-154q0 -12 -9 -21z" />
    <glyph glyph-name="four" unicode="4" 
d="M308 200h-216q-12 0 -21 9l-62 62q-9 9 -9 22v293q0 13 9 22t22 9t22 -9t9 -22v-280l43 -44h203q13 0 22 -9t9 -22t-9 -22t-22 -9zM370 31v555q0 13 9 22t22 9t22 -9t9 -22v-555q0 -13 -9 -22t-22 -9t-22 9t-9 22z" />
    <glyph glyph-name="five" unicode="5" 
d="M423 71l-62 -62q-9 -9 -22 -9h-247q-14 0 -21 9l-62 62q-9 7 -9 21v31q0 13 9 22t22 9t22 -9t9 -22v-18l43 -43h221l44 43v206l-44 44h-249q-13 0 -22 9l-46 46q-9 9 -9 22v154q0 13 9 22t22 9h370q13 0 22 -9t9 -22t-9 -22t-22 -9h-339v-110l28 -29h249q13 0 22 -9
l62 -61q9 -10 9 -22v-232q0 -12 -9 -21z" />
    <glyph glyph-name="six" unicode="6" 
d="M423 71l-62 -62q-9 -9 -22 -9h-247q-14 0 -21 9l-62 62q-9 7 -9 21v432q0 13 9 22l62 62q7 9 21 9h247q13 0 22 -9l62 -62q9 -10 9 -22v-46q0 -13 -9 -22t-22 -9t-22 9t-9 22v33l-44 44h-221l-43 -44v-406l43 -43h221l44 43v206l-44 44h-203q-13 0 -22 8.5t-9 21.5
q0 14 9 22.5t22 8.5h216q13 0 22 -9l62 -61q9 -10 9 -22v-232q0 -12 -9 -21z" />
    <glyph glyph-name="seven" unicode="7" 
d="M185 31v223q0 13 9 22l176 176v103h-308v-69q0 -13 -9 -22t-22 -9t-22 9t-9 22v100q0 13 9 22t22 9h370q13 0 22 -9t9 -22v-147q0 -12 -9 -21l-176 -176v-211q0 -13 -9 -22t-22 -9t-22 9t-9 22z" />
    <glyph glyph-name="eight" unicode="8" 
d="M423 71l-62 -62q-9 -9 -22 -9h-247q-14 0 -21 9l-62 62q-9 7 -9 21v155q0 13 9 22l62 61q7 9 21 9h234l44 44v128l-44 44h-221l-43 -44v-141q0 -13 -9 -22t-22 -9t-22 9t-9 22v154q0 13 9 22l62 62q7 9 21 9h247q13 0 22 -9l62 -62q9 -10 9 -22v-154q0 -12 -9 -22
l-62 -61q-9 -9 -22 -9h-234l-43 -44v-129l43 -43h221l44 43v142q0 13 9 22t22 9t22 -9t9 -22v-155q0 -12 -9 -21z" />
    <glyph glyph-name="nine" unicode="9" 
d="M423 71l-62 -62q-9 -9 -22 -9h-247q-14 0 -21 9l-62 62q-9 7 -9 21v47q0 13 9 22t22 9t22 -9t9 -22v-34l43 -43h221l44 43v406l-44 44h-221l-43 -44v-205l43 -44h203q13 0 22 -9t9 -22t-9 -22t-22 -9h-216q-12 0 -21 9l-62 62q-9 9 -9 22v231q0 13 9 22l62 62q7 9 21 9
h247q13 0 22 -9l62 -62q9 -10 9 -22v-432q0 -12 -9 -21z" />
    <glyph glyph-name="A" unicode="A" 
d="M0 31v108q0 13 9 22t22 9t22 -9t9 -22v-108q0 -13 -9 -22t-22 -9t-22 9t-9 22zM370 31v169h-339q-11 0 -22 9q-9 9 -9 22v293q0 13 9 22l62 62q7 9 21 9h247q13 0 22 -9l62 -62q9 -10 9 -22v-200q0 -13 -9 -22t-22 -9t-22 9t-9 22v187l-44 44h-221l-43 -44v-249h339
q13 0 22 -9t9 -22v-92v-108q0 -13 -9 -22t-22 -9t-22 9t-9 22z" />
    <glyph glyph-name="B" unicode="B" 
d="M423 71l-62 -62q-9 -9 -22 -9h-216q-13 0 -22 9t-9 22t9 22t22 9h203l44 43v129l-44 44h-18h-246v-247q0 -13 -9 -22t-22 -9t-22 9t-9 22v462q0 13 9 22t22 9t22 -9t9 -22v-154h234l43 44v128l-43 44h-265q-13 0 -22 9t-9 22t9 22t22 9h277q13 0 22 -9l62 -62q9 -9 9 -22
v-154q0 -13 -9 -22l-25 -24l56 -55q9 -11 9 -22v-155q0 -12 -9 -21z" />
    <glyph glyph-name="C" unicode="C" horiz-adv-x="499" 
d="M432 524v-31q0 -13 -9 -21.5t-22 -8.5t-22 8.5t-9 21.5v18l-44 44h-64q-13 0 -22 9t-9 22t9 22t22 9h77q13 0 22 -9l62 -62q9 -10 9 -22zM170 0h-78q-14 0 -21 9l-62 62q-9 7 -9 21v432q0 13 9 22l62 62q7 9 21 9h78q13 0 21.5 -9t8.5 -22t-8.5 -22t-21.5 -9h-65l-43 -44
v-406l43 -43h65q13 0 21.5 -9t8.5 -22t-8.5 -22t-21.5 -9zM423 71l-62 -62q-9 -9 -22 -9h-77q-13 0 -22 9t-9 22t9 22t22 9h64l44 43v18q0 13 9 22t22 9t22 -9t9 -22v-31q0 -12 -9 -21z" />
    <glyph glyph-name="D" unicode="D" 
d="M423 71l-62 -62q-9 -9 -22 -9h-308q-13 0 -22 9t-9 22v462q0 13 9 22t22 9t22 -9t9 -22v-431h264l44 43v406l-44 44h-295q-13 0 -22 9t-9 22t9 22t22 9h308q13 0 22 -9l62 -62q9 -10 9 -22v-432q0 -12 -9 -21z" />
    <glyph glyph-name="E" unicode="E" 
d="M339 278h-308q-13 0 -22 8.5t-9 21.5v216q0 13 9 22l62 62q7 9 21 9h309q13 0 22 -9t9 -22t-9 -22t-22 -9h-296l-43 -44v-172h277q13 0 22 -9t9 -22t-9 -21.5t-22 -8.5zM401 0h-309q-14 0 -21 9l-62 62q-9 7 -9 21v124q0 13 9 22t22 9t22 -9t9 -22v-111l43 -43h296
q13 0 22 -9t9 -22t-9 -22t-22 -9z" />
    <glyph glyph-name="F" unicode="F" horiz-adv-x="501" 
d="M339 278h-308q-13 0 -22 8.5t-9 21.5v216q0 13 9 22l62 62q7 9 21 9h309q13 0 22 -9t9 -22t-9 -22t-22 -9h-296l-43 -44v-172h277q13 0 22 -9t9 -22t-9 -21.5t-22 -8.5zM0 31v185q0 13 9 22t22 9t22 -9t9 -22v-185q0 -13 -9 -22t-22 -9t-22 9t-9 22z" />
    <glyph glyph-name="G" unicode="G" 
d="M423 71l-62 -62q-9 -9 -22 -9h-77q-13 0 -22 9t-9 22t9 22t22 9h64l44 43v173h-123q-13 0 -22 8.5t-9 21.5t9 22t22 9h154q13 0 22 -9t9 -22v-216q0 -12 -9 -21zM170 0h-78q-14 0 -21 9l-62 62q-9 7 -9 21v432q0 13 9 22l62 62q7 9 21 9h78q13 0 21.5 -9t8.5 -22
t-8.5 -22t-21.5 -9h-65l-43 -44v-406l43 -43h65q13 0 21.5 -9t8.5 -22t-8.5 -22t-21.5 -9zM432 524v-31q0 -13 -9 -21.5t-22 -8.5t-22 8.5t-9 21.5v18l-44 44h-64q-13 0 -22 9t-9 22t9 22t22 9h77q13 0 22 -9l62 -62q9 -10 9 -22z" />
    <glyph glyph-name="H" unicode="H" 
d="M370 401v185q0 13 9 22t22 9t22 -9t9 -22v-185q0 -13 -9 -22t-22 -9t-22 9t-9 22zM0 31v185q0 13 9 22t22 9t22 -9t9 -22v-185q0 -13 -9 -22t-22 -9t-22 9t-9 22zM370 31v247h-339q-13 0 -22 8.5t-9 21.5v278q0 13 9 22t22 9t22 -9t9 -22v-247h339q10 0 19 -6
q12 -11 12 -25v-277q0 -13 -9 -22t-22 -9t-22 9t-9 22z" />
    <glyph glyph-name="I" unicode="I" horiz-adv-x="284" 
d="M185 0h-154q-13 0 -22 9t-9 22t9 22t22 9h46v493h-46q-13 0 -22 9t-9 22t9 22t22 9h154q13 0 22 -9t9 -22t-9 -22t-22 -9h-46v-493h46q13 0 22 -9t9 -22t-9 -22t-22 -9z" />
    <glyph glyph-name="J" unicode="J" 
d="M423 71l-62 -62q-9 -9 -22 -9h-247q-14 0 -21 9l-62 62q-9 7 -9 21v31q0 13 9 22t22 9t22 -9t9 -22v-18l43 -43h221l44 43v450h-123q-13 0 -22 9t-9 22t9 22t22 9h154q13 0 22 -9t9 -22v-494q0 -12 -9 -21z" />
    <glyph glyph-name="K" unicode="K" horiz-adv-x="501" 
d="M0 31v277q0 13 9 22t22 9h80l268 269q9 9 22 9t22 -9t9 -22t-9 -22l-278 -277q-9 -9 -22 -9h-61v-247q0 -13 -9 -22t-22 -9t-22 9t-9 22zM379 9l-216 216q-9 9 -9 21.5t9 22.5q9 9 22 9t22 -9l216 -216q9 -9 9 -22t-9 -22t-22 -9t-22 9zM0 401v185q0 13 9 22t22 9t22 -9
t9 -22v-185q0 -13 -9 -22t-22 -9t-22 9t-9 22z" />
    <glyph glyph-name="L" unicode="L" 
d="M423 71l-62 -62q-9 -9 -22 -9h-247q-14 0 -21 9l-62 62q-9 7 -9 21v494q0 13 9 22t22 9t22 -9t9 -22v-481l43 -43h221l44 43v18q0 13 9 22t22 9t22 -9t9 -22v-31q0 -12 -9 -21z" />
    <glyph glyph-name="M" unicode="M" horiz-adv-x="716" 
d="M0 31v370q0 13 9 22t22 9t22 -9t9 -22v-370q0 -13 -9 -22t-22 -9t-22 9t-9 22zM293 31v249l-231 231v-18q0 -13 -9 -21.5t-22 -8.5t-22 8.5t-9 21.5v93q0 22 19 28q20 8 34 -6l271 -271l271 271q14 14 34 6q19 -7 19 -28v-93q0 -13 -9 -21.5t-22 -8.5t-22 8.5t-9 21.5v18
l-231 -231v-249q0 -13 -9 -22t-22 -9t-22 9t-9 22zM586 31v370q0 13 9 22t22 9t22 -9t9 -22v-370q0 -13 -9 -22t-22 -9t-22 9t-9 22z" />
    <glyph glyph-name="N" unicode="N" 
d="M370 31v172l-308 308v-480q0 -13 -9 -22t-22 -9t-22 9t-9 22v555q0 22 19 28q20 8 34 -6l370 -370q9 -10 9 -22v-185q0 -13 -9 -22t-22 -9t-22 9t-9 22zM370 339v247q0 13 9 22t22 9t22 -9t9 -22v-247q0 -13 -9 -22t-22 -9t-22 9t-9 22z" />
    <glyph glyph-name="O" unicode="O" 
d="M170 0h-78q-14 0 -21 9l-62 62q-9 7 -9 21v432q0 13 9 22l62 62q7 9 21 9h78q13 0 21.5 -9t8.5 -22t-8.5 -22t-21.5 -9h-65l-43 -44v-406l43 -43h65q13 0 21.5 -9t8.5 -22t-8.5 -22t-21.5 -9zM423 71l-62 -62q-9 -9 -22 -9h-77q-13 0 -22 9t-9 22t9 22t22 9h64l44 43v406
l-44 44h-64q-13 0 -22 9t-9 22t9 22t22 9h77q13 0 22 -9l62 -62q9 -10 9 -22v-432q0 -12 -9 -21z" />
    <glyph glyph-name="P" unicode="P" 
d="M423 271l-62 -62q-11 -9 -22 -9h-216q-13 0 -22 9t-9 22t9 22t22 9h203l44 44v205l-44 44h-295q-13 0 -22 9t-9 22t9 22t22 9h308q13 0 22 -9l62 -62q9 -10 9 -22v-231q0 -11 -9 -22zM0 31v462q0 13 9 22t22 9t22 -9t9 -22v-462q0 -13 -9 -22t-22 -9t-22 9t-9 22z" />
    <glyph glyph-name="Q" unicode="Q" 
d="M370 154v357l-44 44h-221l-43 -44v-18q0 -13 -9 -21.5t-22 -8.5t-22 8.5t-9 21.5v31q0 13 9 22l62 62q7 9 21 9h247q13 0 22 -9l62 -62q9 -10 9 -22v-370q0 -13 -9 -22t-22 -9t-22 9t-9 22zM379 9l-317 317v-221l43 -43h173q13 0 21.5 -9t8.5 -22t-8.5 -22t-21.5 -9h-186
q-14 0 -21 9l-62 62q-9 7 -9 21v309q0 22 19 28q20 8 34 -6l370 -370q9 -9 9 -22t-9 -22t-22 -9t-22 9z" />
    <glyph glyph-name="R" unicode="R" 
d="M379 9l-191 191h-65q-13 0 -22 9t-9 22t9 22t22 9h203l44 44v205l-44 44h-295q-13 0 -22 9t-9 22t9 22t22 9h308q13 0 22 -9l62 -62q9 -10 9 -22v-231q0 -11 -9 -22l-62 -62q-11 -9 -22 -9h-64l148 -147q9 -9 9 -22t-9 -22t-22 -9t-22 9zM0 31v462q0 13 9 22t22 9t22 -9
t9 -22v-462q0 -13 -9 -22t-22 -9t-22 9t-9 22z" />
    <glyph glyph-name="S" unicode="S" 
d="M432 524v-31q0 -13 -9 -21.5t-22 -8.5t-22 8.5t-9 21.5v18l-44 44h-64q-13 0 -22 9t-9 22t9 22t22 9h77q13 0 22 -9l62 -62q9 -10 9 -22zM423 71l-62 -62q-9 -9 -22 -9h-77q-13 0 -22 9t-9 22t9 22t22 9h64l44 43v106l-351 146q-19 7 -19 28v139q0 13 9 22l62 62
q7 9 21 9h78q13 0 21.5 -9t8.5 -22t-8.5 -22t-21.5 -9h-65l-43 -44v-105l351 -146q19 -9 19 -29v-139q0 -12 -9 -21zM170 0h-78q-14 0 -21 9l-62 62q-9 7 -9 21v31q0 13 9 22t22 9t22 -9t9 -22v-18l43 -43h65q13 0 21.5 -9t8.5 -22t-8.5 -22t-21.5 -9z" />
    <glyph glyph-name="T" unicode="T" 
d="M185 31v524h-154q-13 0 -22 9t-9 22t9 22t22 9h92h93q13 0 22 -9t9 -22v-555q0 -13 -9 -22t-22 -9t-22 9t-9 22zM401 555h-93q-13 0 -21.5 9t-8.5 22t8.5 22t21.5 9h93q13 0 22 -9t9 -22t-9 -22t-22 -9z" />
    <glyph glyph-name="U" unicode="U" 
d="M423 71l-62 -62q-9 -9 -22 -9h-247q-14 0 -21 9l-62 62q-9 7 -9 21v494q0 13 9 22t22 9t22 -9t9 -22v-481l43 -43h221l44 43v481q0 13 9 22t22 9t22 -9t9 -22v-494q0 -12 -9 -21z" />
    <glyph glyph-name="V" unicode="V" 
d="M423 163l-154 -154q-9 -9 -22 -9h-62q-13 0 -22 9l-154 154q-9 9 -9 22v401q0 13 9 22t22 9t22 -9t9 -22v-388l136 -136h36l136 136v388q0 13 9 22t22 9t22 -9t9 -22v-401q0 -11 -9 -22z" />
    <glyph glyph-name="W" unicode="W" horiz-adv-x="716" 
d="M639 71l-62 -62q-9 -9 -22 -9h-170q-13 0 -21 9l-40 40l-40 -40q-9 -9 -22 -9h-170q-14 0 -21 9l-62 62q-9 7 -9 21v31q0 13 9 22t22 9t22 -9t9 -22v-18l43 -43h144l44 43v11v470q0 13 9 22t22 9t22 -9t9 -22v-463v-18l43 -43h144l44 43v18q0 13 9 22t22 9t22 -9t9 -22
v-31q0 -12 -9 -21zM586 216v370q0 13 9 22t22 9t22 -9t9 -22v-370q0 -13 -9 -22t-22 -9t-22 9t-9 22zM0 216v370q0 13 9 22t22 9t22 -9t9 -22v-370q0 -13 -9 -22t-22 -9t-22 9t-9 22z" />
    <glyph glyph-name="X" unicode="X" horiz-adv-x="501" 
d="M0 31v92q0 13 9 22l123 124q9 9 22 9t22 -9q9 -10 9 -22.5t-9 -21.5l-114 -114v-80q0 -13 -9 -22t-22 -9t-22 9t-9 22zM370 31v80l-361 361q-9 8 -9 21v93q0 13 9 22t22 9t22 -9t9 -22v-80l361 -361q9 -11 9 -22v-92q0 -13 -9 -22t-22 -9t-22 9t-9 22zM423 472l-124 -124
q-9 -9 -21 -9q-13 0 -22 9t-9 22t9 22l114 114v80q0 13 9 22t22 9t22 -9t9 -22v-93q0 -12 -9 -21z" />
    <glyph glyph-name="Y" unicode="Y" 
d="M423 71l-62 -62q-9 -9 -22 -9h-247q-14 0 -21 9l-62 62q-9 7 -9 21v31q0 13 9 22t22 9t22 -9t9 -22v-18l43 -43h221l44 43v481q0 13 9 22t22 9t22 -9t9 -22v-494q0 -12 -9 -21zM308 200h-216q-12 0 -21 9l-62 62q-9 9 -9 22v293q0 13 9 22t22 9t22 -9t9 -22v-280l43 -44
h203q13 0 22 -9t9 -22t-9 -22t-22 -9z" />
    <glyph glyph-name="Z" unicode="Z" 
d="M401 0h-139q-13 0 -22 9t-9 22t9 22t22 9h139q13 0 22 -9t9 -22t-9 -22t-22 -9zM170 0h-139q-20 0 -27 16q-9 16 1 32l338 507h-81q-13 0 -22 9t-9 22t9 22t22 9h139q19 0 27 -17q8 -18 -1 -31l-339 -507h82q13 0 21.5 -9t8.5 -22t-8.5 -22t-21.5 -9zM170 555h-139
q-13 0 -22 9t-9 22t9 22t22 9h139q13 0 21.5 -9t8.5 -22t-8.5 -22t-21.5 -9z" />
    <glyph glyph-name="a" unicode="a" 
d="M0 31v108q0 13 9 22t22 9t22 -9t9 -22v-108q0 -13 -9 -22t-22 -9t-22 9t-9 22zM370 31v169h-339q-11 0 -22 9q-9 9 -9 22v293q0 13 9 22l62 62q7 9 21 9h247q13 0 22 -9l62 -62q9 -10 9 -22v-200q0 -13 -9 -22t-22 -9t-22 9t-9 22v187l-44 44h-221l-43 -44v-249h339
q13 0 22 -9t9 -22v-92v-108q0 -13 -9 -22t-22 -9t-22 9t-9 22z" />
    <glyph glyph-name="b" unicode="b" 
d="M423 71l-62 -62q-9 -9 -22 -9h-216q-13 0 -22 9t-9 22t9 22t22 9h203l44 43v129l-44 44h-18h-246v-247q0 -13 -9 -22t-22 -9t-22 9t-9 22v462q0 13 9 22t22 9t22 -9t9 -22v-154h234l43 44v128l-43 44h-265q-13 0 -22 9t-9 22t9 22t22 9h277q13 0 22 -9l62 -62q9 -9 9 -22
v-154q0 -13 -9 -22l-25 -24l56 -55q9 -11 9 -22v-155q0 -12 -9 -21z" />
    <glyph glyph-name="c" unicode="c" horiz-adv-x="499" 
d="M432 524v-31q0 -13 -9 -21.5t-22 -8.5t-22 8.5t-9 21.5v18l-44 44h-64q-13 0 -22 9t-9 22t9 22t22 9h77q13 0 22 -9l62 -62q9 -10 9 -22zM170 0h-78q-14 0 -21 9l-62 62q-9 7 -9 21v432q0 13 9 22l62 62q7 9 21 9h78q13 0 21.5 -9t8.5 -22t-8.5 -22t-21.5 -9h-65l-43 -44
v-406l43 -43h65q13 0 21.5 -9t8.5 -22t-8.5 -22t-21.5 -9zM423 71l-62 -62q-9 -9 -22 -9h-77q-13 0 -22 9t-9 22t9 22t22 9h64l44 43v18q0 13 9 22t22 9t22 -9t9 -22v-31q0 -12 -9 -21z" />
    <glyph glyph-name="d" unicode="d" 
d="M423 71l-62 -62q-9 -9 -22 -9h-308q-13 0 -22 9t-9 22v462q0 13 9 22t22 9t22 -9t9 -22v-431h264l44 43v406l-44 44h-295q-13 0 -22 9t-9 22t9 22t22 9h308q13 0 22 -9l62 -62q9 -10 9 -22v-432q0 -12 -9 -21z" />
    <glyph glyph-name="e" unicode="e" 
d="M339 278h-308q-13 0 -22 8.5t-9 21.5v216q0 13 9 22l62 62q7 9 21 9h309q13 0 22 -9t9 -22t-9 -22t-22 -9h-296l-43 -44v-172h277q13 0 22 -9t9 -22t-9 -21.5t-22 -8.5zM401 0h-309q-14 0 -21 9l-62 62q-9 7 -9 21v124q0 13 9 22t22 9t22 -9t9 -22v-111l43 -43h296
q13 0 22 -9t9 -22t-9 -22t-22 -9z" />
    <glyph glyph-name="f" unicode="f" horiz-adv-x="501" 
d="M339 278h-308q-13 0 -22 8.5t-9 21.5v216q0 13 9 22l62 62q7 9 21 9h309q13 0 22 -9t9 -22t-9 -22t-22 -9h-296l-43 -44v-172h277q13 0 22 -9t9 -22t-9 -21.5t-22 -8.5zM0 31v185q0 13 9 22t22 9t22 -9t9 -22v-185q0 -13 -9 -22t-22 -9t-22 9t-9 22z" />
    <glyph glyph-name="g" unicode="g" 
d="M423 71l-62 -62q-9 -9 -22 -9h-77q-13 0 -22 9t-9 22t9 22t22 9h64l44 43v173h-123q-13 0 -22 8.5t-9 21.5t9 22t22 9h154q13 0 22 -9t9 -22v-216q0 -12 -9 -21zM170 0h-78q-14 0 -21 9l-62 62q-9 7 -9 21v432q0 13 9 22l62 62q7 9 21 9h78q13 0 21.5 -9t8.5 -22
t-8.5 -22t-21.5 -9h-65l-43 -44v-406l43 -43h65q13 0 21.5 -9t8.5 -22t-8.5 -22t-21.5 -9zM432 524v-31q0 -13 -9 -21.5t-22 -8.5t-22 8.5t-9 21.5v18l-44 44h-64q-13 0 -22 9t-9 22t9 22t22 9h77q13 0 22 -9l62 -62q9 -10 9 -22z" />
    <glyph glyph-name="h" unicode="h" 
d="M370 401v185q0 13 9 22t22 9t22 -9t9 -22v-185q0 -13 -9 -22t-22 -9t-22 9t-9 22zM0 31v185q0 13 9 22t22 9t22 -9t9 -22v-185q0 -13 -9 -22t-22 -9t-22 9t-9 22zM370 31v247h-339q-13 0 -22 8.5t-9 21.5v278q0 13 9 22t22 9t22 -9t9 -22v-247h339q10 0 19 -6
q12 -11 12 -25v-277q0 -13 -9 -22t-22 -9t-22 9t-9 22z" />
    <glyph glyph-name="i" unicode="i" horiz-adv-x="284" 
d="M185 0h-154q-13 0 -22 9t-9 22t9 22t22 9h46v493h-46q-13 0 -22 9t-9 22t9 22t22 9h154q13 0 22 -9t9 -22t-9 -22t-22 -9h-46v-493h46q13 0 22 -9t9 -22t-9 -22t-22 -9z" />
    <glyph glyph-name="j" unicode="j" 
d="M423 71l-62 -62q-9 -9 -22 -9h-247q-14 0 -21 9l-62 62q-9 7 -9 21v31q0 13 9 22t22 9t22 -9t9 -22v-18l43 -43h221l44 43v450h-123q-13 0 -22 9t-9 22t9 22t22 9h154q13 0 22 -9t9 -22v-494q0 -12 -9 -21z" />
    <glyph glyph-name="k" unicode="k" horiz-adv-x="501" 
d="M0 31v277q0 13 9 22t22 9h80l268 269q9 9 22 9t22 -9t9 -22t-9 -22l-278 -277q-9 -9 -22 -9h-61v-247q0 -13 -9 -22t-22 -9t-22 9t-9 22zM379 9l-216 216q-9 9 -9 21.5t9 22.5q9 9 22 9t22 -9l216 -216q9 -9 9 -22t-9 -22t-22 -9t-22 9zM0 401v185q0 13 9 22t22 9t22 -9
t9 -22v-185q0 -13 -9 -22t-22 -9t-22 9t-9 22z" />
    <glyph glyph-name="l" unicode="l" 
d="M423 71l-62 -62q-9 -9 -22 -9h-247q-14 0 -21 9l-62 62q-9 7 -9 21v494q0 13 9 22t22 9t22 -9t9 -22v-481l43 -43h221l44 43v18q0 13 9 22t22 9t22 -9t9 -22v-31q0 -12 -9 -21z" />
    <glyph glyph-name="m" unicode="m" horiz-adv-x="716" 
d="M0 31v370q0 13 9 22t22 9t22 -9t9 -22v-370q0 -13 -9 -22t-22 -9t-22 9t-9 22zM293 31v249l-231 231v-18q0 -13 -9 -21.5t-22 -8.5t-22 8.5t-9 21.5v93q0 22 19 28q20 8 34 -6l271 -271l271 271q14 14 34 6q19 -7 19 -28v-93q0 -13 -9 -21.5t-22 -8.5t-22 8.5t-9 21.5v18
l-231 -231v-249q0 -13 -9 -22t-22 -9t-22 9t-9 22zM586 31v370q0 13 9 22t22 9t22 -9t9 -22v-370q0 -13 -9 -22t-22 -9t-22 9t-9 22z" />
    <glyph glyph-name="n" unicode="n" 
d="M370 31v172l-308 308v-480q0 -13 -9 -22t-22 -9t-22 9t-9 22v555q0 22 19 28q20 8 34 -6l370 -370q9 -10 9 -22v-185q0 -13 -9 -22t-22 -9t-22 9t-9 22zM370 339v247q0 13 9 22t22 9t22 -9t9 -22v-247q0 -13 -9 -22t-22 -9t-22 9t-9 22z" />
    <glyph glyph-name="o" unicode="o" 
d="M170 0h-78q-14 0 -21 9l-62 62q-9 7 -9 21v432q0 13 9 22l62 62q7 9 21 9h78q13 0 21.5 -9t8.5 -22t-8.5 -22t-21.5 -9h-65l-43 -44v-406l43 -43h65q13 0 21.5 -9t8.5 -22t-8.5 -22t-21.5 -9zM423 71l-62 -62q-9 -9 -22 -9h-77q-13 0 -22 9t-9 22t9 22t22 9h64l44 43v406
l-44 44h-64q-13 0 -22 9t-9 22t9 22t22 9h77q13 0 22 -9l62 -62q9 -10 9 -22v-432q0 -12 -9 -21z" />
    <glyph glyph-name="p" unicode="p" 
d="M423 271l-62 -62q-11 -9 -22 -9h-216q-13 0 -22 9t-9 22t9 22t22 9h203l44 44v205l-44 44h-295q-13 0 -22 9t-9 22t9 22t22 9h308q13 0 22 -9l62 -62q9 -10 9 -22v-231q0 -11 -9 -22zM0 31v462q0 13 9 22t22 9t22 -9t9 -22v-462q0 -13 -9 -22t-22 -9t-22 9t-9 22z" />
    <glyph glyph-name="q" unicode="q" 
d="M370 154v357l-44 44h-221l-43 -44v-18q0 -13 -9 -21.5t-22 -8.5t-22 8.5t-9 21.5v31q0 13 9 22l62 62q7 9 21 9h247q13 0 22 -9l62 -62q9 -10 9 -22v-370q0 -13 -9 -22t-22 -9t-22 9t-9 22zM379 9l-317 317v-221l43 -43h173q13 0 21.5 -9t8.5 -22t-8.5 -22t-21.5 -9h-186
q-14 0 -21 9l-62 62q-9 7 -9 21v309q0 22 19 28q20 8 34 -6l370 -370q9 -9 9 -22t-9 -22t-22 -9t-22 9z" />
    <glyph glyph-name="r" unicode="r" 
d="M379 9l-191 191h-65q-13 0 -22 9t-9 22t9 22t22 9h203l44 44v205l-44 44h-295q-13 0 -22 9t-9 22t9 22t22 9h308q13 0 22 -9l62 -62q9 -10 9 -22v-231q0 -11 -9 -22l-62 -62q-11 -9 -22 -9h-64l148 -147q9 -9 9 -22t-9 -22t-22 -9t-22 9zM0 31v462q0 13 9 22t22 9t22 -9
t9 -22v-462q0 -13 -9 -22t-22 -9t-22 9t-9 22z" />
    <glyph glyph-name="s" unicode="s" 
d="M432 524v-31q0 -13 -9 -21.5t-22 -8.5t-22 8.5t-9 21.5v18l-44 44h-64q-13 0 -22 9t-9 22t9 22t22 9h77q13 0 22 -9l62 -62q9 -10 9 -22zM423 71l-62 -62q-9 -9 -22 -9h-77q-13 0 -22 9t-9 22t9 22t22 9h64l44 43v106l-351 146q-19 7 -19 28v139q0 13 9 22l62 62
q7 9 21 9h78q13 0 21.5 -9t8.5 -22t-8.5 -22t-21.5 -9h-65l-43 -44v-105l351 -146q19 -9 19 -29v-139q0 -12 -9 -21zM170 0h-78q-14 0 -21 9l-62 62q-9 7 -9 21v31q0 13 9 22t22 9t22 -9t9 -22v-18l43 -43h65q13 0 21.5 -9t8.5 -22t-8.5 -22t-21.5 -9z" />
    <glyph glyph-name="t" unicode="t" 
d="M185 31v524h-154q-13 0 -22 9t-9 22t9 22t22 9h92h93q13 0 22 -9t9 -22v-555q0 -13 -9 -22t-22 -9t-22 9t-9 22zM401 555h-93q-13 0 -21.5 9t-8.5 22t8.5 22t21.5 9h93q13 0 22 -9t9 -22t-9 -22t-22 -9z" />
    <glyph glyph-name="u" unicode="u" 
d="M423 71l-62 -62q-9 -9 -22 -9h-247q-14 0 -21 9l-62 62q-9 7 -9 21v494q0 13 9 22t22 9t22 -9t9 -22v-481l43 -43h221l44 43v481q0 13 9 22t22 9t22 -9t9 -22v-494q0 -12 -9 -21z" />
    <glyph glyph-name="v" unicode="v" 
d="M423 163l-154 -154q-9 -9 -22 -9h-62q-13 0 -22 9l-154 154q-9 9 -9 22v401q0 13 9 22t22 9t22 -9t9 -22v-388l136 -136h36l136 136v388q0 13 9 22t22 9t22 -9t9 -22v-401q0 -11 -9 -22z" />
    <glyph glyph-name="w" unicode="w" horiz-adv-x="716" 
d="M639 71l-62 -62q-9 -9 -22 -9h-170q-13 0 -21 9l-40 40l-40 -40q-9 -9 -22 -9h-170q-14 0 -21 9l-62 62q-9 7 -9 21v31q0 13 9 22t22 9t22 -9t9 -22v-18l43 -43h144l44 43v11v470q0 13 9 22t22 9t22 -9t9 -22v-463v-18l43 -43h144l44 43v18q0 13 9 22t22 9t22 -9t9 -22
v-31q0 -12 -9 -21zM586 216v370q0 13 9 22t22 9t22 -9t9 -22v-370q0 -13 -9 -22t-22 -9t-22 9t-9 22zM0 216v370q0 13 9 22t22 9t22 -9t9 -22v-370q0 -13 -9 -22t-22 -9t-22 9t-9 22z" />
    <glyph glyph-name="x" unicode="x" horiz-adv-x="501" 
d="M0 31v92q0 13 9 22l123 124q9 9 22 9t22 -9q9 -10 9 -22.5t-9 -21.5l-114 -114v-80q0 -13 -9 -22t-22 -9t-22 9t-9 22zM370 31v80l-361 361q-9 8 -9 21v93q0 13 9 22t22 9t22 -9t9 -22v-80l361 -361q9 -11 9 -22v-92q0 -13 -9 -22t-22 -9t-22 9t-9 22zM423 472l-124 -124
q-9 -9 -21 -9q-13 0 -22 9t-9 22t9 22l114 114v80q0 13 9 22t22 9t22 -9t9 -22v-93q0 -12 -9 -21z" />
    <glyph glyph-name="y" unicode="y" 
d="M423 71l-62 -62q-9 -9 -22 -9h-247q-14 0 -21 9l-62 62q-9 7 -9 21v31q0 13 9 22t22 9t22 -9t9 -22v-18l43 -43h221l44 43v481q0 13 9 22t22 9t22 -9t9 -22v-494q0 -12 -9 -21zM308 200h-216q-12 0 -21 9l-62 62q-9 9 -9 22v293q0 13 9 22t22 9t22 -9t9 -22v-280l43 -44
h203q13 0 22 -9t9 -22t-9 -22t-22 -9z" />
    <glyph glyph-name="z" unicode="z" 
d="M401 0h-139q-13 0 -22 9t-9 22t9 22t22 9h139q13 0 22 -9t9 -22t-9 -22t-22 -9zM170 0h-139q-20 0 -27 16q-9 16 1 32l338 507h-81q-13 0 -22 9t-9 22t9 22t22 9h139q19 0 27 -17q8 -18 -1 -31l-339 -507h82q13 0 21.5 -9t8.5 -22t-8.5 -22t-21.5 -9zM170 555h-139
q-13 0 -22 9t-9 22t9 22t22 9h139q13 0 21.5 -9t8.5 -22t-8.5 -22t-21.5 -9z" />
    <glyph glyph-name="afii10023" unicode="&#x401;" 
d="M342 691q0 -13 -9 -22t-22 -9t-22 9t-9 22t9 22t22 9t22 -9t9 -22zM172 691q0 -13 -9 -22t-22 -9t-22 9t-9 22t9 22t22 9t22 -9t9 -22zM339 278h-308q-13 0 -22 8.5t-9 21.5v216q0 13 9 22l62 62q7 9 21 9h309q13 0 22 -9t9 -22t-9 -22t-22 -9h-296l-43 -44v-172h277
q13 0 22 -9t9 -22t-9 -21.5t-22 -8.5zM401 0h-309q-14 0 -21 9l-62 62q-9 7 -9 21v124q0 13 9 22t22 9t22 -9t9 -22v-111l43 -43h296q13 0 22 -9t9 -22t-9 -22t-22 -9z" />
    <glyph glyph-name="afii10053" unicode="&#x404;" horiz-adv-x="499" 
d="M432 524v-31q0 -13 -9 -21.5t-22 -8.5t-22 8.5t-9 21.5v18l-44 44h-64q-13 0 -22 9t-9 22t9 22t22 9h77q13 0 22 -9l62 -62q9 -10 9 -22zM170 0h-78q-14 0 -21 9l-62 62q-9 7 -9 21v432q0 13 9 22l62 62q7 9 21 9h78q13 0 21.5 -9t8.5 -22t-8.5 -22t-21.5 -9h-65l-43 -44
v-406l43 -43h65q13 0 21.5 -9t8.5 -22t-8.5 -22t-21.5 -9zM423 71l-62 -62q-9 -9 -22 -9h-77q-13 0 -22 9t-9 22t9 22t22 9h64l44 43v18q0 13 9 22t22 9t22 -9t9 -22v-31q0 -12 -9 -21zM308 278h-184q-13 0 -22 8.5t-9 21.5t9 22t22 9h184q13 0 22 -9t9 -22t-9 -21.5
t-22 -8.5z" />
    <glyph glyph-name="afii10054" unicode="&#x405;" 
d="M432 524v-31q0 -13 -9 -21.5t-22 -8.5t-22 8.5t-9 21.5v18l-44 44h-64q-13 0 -22 9t-9 22t9 22t22 9h77q13 0 22 -9l62 -62q9 -10 9 -22zM423 71l-62 -62q-9 -9 -22 -9h-77q-13 0 -22 9t-9 22t9 22t22 9h64l44 43v106l-351 146q-19 7 -19 28v139q0 13 9 22l62 62
q7 9 21 9h78q13 0 21.5 -9t8.5 -22t-8.5 -22t-21.5 -9h-65l-43 -44v-105l351 -146q19 -9 19 -29v-139q0 -12 -9 -21zM170 0h-78q-14 0 -21 9l-62 62q-9 7 -9 21v31q0 13 9 22t22 9t22 -9t9 -22v-18l43 -43h65q13 0 21.5 -9t8.5 -22t-8.5 -22t-21.5 -9z" />
    <glyph glyph-name="afii10055" unicode="&#x406;" horiz-adv-x="284" 
d="M185 0h-154q-13 0 -22 9t-9 22t9 22t22 9h46v493h-46q-13 0 -22 9t-9 22t9 22t22 9h154q13 0 22 -9t9 -22t-9 -22t-22 -9h-46v-493h46q13 0 22 -9t9 -22t-9 -22t-22 -9z" />
    <glyph glyph-name="afii10056" unicode="&#x407;" horiz-adv-x="284" 
d="M185 660q-13 0 -22 9t-9 22t9 22t22 9t22 -9t9 -22t-9 -22t-22 -9zM31 660q-13 0 -22 9t-9 22t9 22t22 9t22 -9t9 -22t-9 -22t-22 -9zM185 0h-154q-13 0 -22 9t-9 22t9 22t22 9h46v493h-46q-13 0 -22 9t-9 22t9 22t22 9h154q13 0 22 -9t9 -22t-9 -22t-22 -9h-46v-493h46
q13 0 22 -9t9 -22t-9 -22t-22 -9z" />
    <glyph glyph-name="afii10057" unicode="&#x408;" 
d="M423 71l-62 -62q-9 -9 -22 -9h-247q-14 0 -21 9l-62 62q-9 7 -9 21v31q0 13 9 22t22 9t22 -9t9 -22v-18l43 -43h221l44 43v450h-123q-13 0 -22 9t-9 22t9 22t22 9h154q13 0 22 -9t9 -22v-494q0 -12 -9 -21z" />
    <glyph glyph-name="afii10062" unicode="&#x40e;" 
d="M322 686l-62 -62q-8 -9 -21 -9h-47q-14 0 -21 9l-62 62q-9 8 -9 21v13q0 13 9 22t22 9t22 -9t9 -22l43 -43h21l43 43q0 13 9 22t22 9t22 -9t9 -22v-13q0 -13 -9 -21zM423 71l-62 -62q-9 -9 -22 -9h-247q-14 0 -21 9l-62 62q-9 7 -9 21v31q0 13 9 22t22 9t22 -9t9 -22v-18
l43 -43h221l44 43v481q0 13 9 22t22 9t22 -9t9 -22v-494q0 -12 -9 -21zM308 200h-216q-12 0 -21 9l-62 62q-9 9 -9 22v293q0 13 9 22t22 9t22 -9t9 -22v-280l43 -44h203q13 0 22 -9t9 -22t-9 -22t-22 -9z" />
    <glyph glyph-name="afii10017" unicode="&#x410;" 
d="M0 31v108q0 13 9 22t22 9t22 -9t9 -22v-108q0 -13 -9 -22t-22 -9t-22 9t-9 22zM370 31v169h-339q-11 0 -22 9q-9 9 -9 22v293q0 13 9 22l62 62q7 9 21 9h247q13 0 22 -9l62 -62q9 -10 9 -22v-200q0 -13 -9 -22t-22 -9t-22 9t-9 22v187l-44 44h-221l-43 -44v-249h339
q13 0 22 -9t9 -22v-200q0 -13 -9 -22t-22 -9t-22 9t-9 22z" />
    <glyph glyph-name="afii10018" unicode="&#x411;" 
d="M423 71l-62 -62q-9 -9 -22 -9h-308q-13 0 -22 9t-9 22t9 22t22 9h295l44 44v205l-44 44h-203q-13 0 -22 9t-9 22t9 22t22 9h216q11 0 22 -9l62 -62q9 -10 9 -22v-231q0 -11 -9 -22zM0 124v462q0 13 9 22t22 9h370q13 0 22 -9t9 -22t-9 -22t-22 -9h-339v-431q0 -13 -9 -22
t-22 -9t-22 9t-9 22z" />
    <glyph glyph-name="afii10019" unicode="&#x412;" 
d="M423 71l-62 -62q-9 -9 -22 -9h-216q-13 0 -22 9t-9 22t9 22t22 9h203l44 43v129l-44 44h-18h-246v-247q0 -13 -9 -22t-22 -9t-22 9t-9 22v462q0 13 9 22t22 9t22 -9t9 -22v-154h234l43 44v128l-43 44h-265q-13 0 -22 9t-9 22t9 22t22 9h277q13 0 22 -9l62 -62q9 -9 9 -22
v-154q0 -13 -9 -22l-25 -24l56 -55q9 -11 9 -22v-155q0 -12 -9 -21z" />
    <glyph glyph-name="afii10020" unicode="&#x413;" horiz-adv-x="501" 
d="M401 555h-370q-13 0 -22 9t-9 22t9 22t22 9h370q13 0 22 -9t9 -22t-9 -22t-22 -9zM0 31v462q0 13 9 22t22 9t22 -9t9 -22v-462q0 -13 -9 -22t-22 -9t-22 9t-9 22z" />
    <glyph glyph-name="afii10021" unicode="&#x414;" 
d="M370 124v431h-110l-136 -136v-295q0 -13 -9 -22t-22 -9t-22 9t-9 22v308q0 13 9 22l154 154q9 9 22 9h155q12 0 21 -9t9 -22v-462q0 -13 -9 -22t-22 -9t-22 9t-9 22zM432 -169v169h-370v-169q0 -13 -9 -22t-22 -9t-22 9t-9 22v200q0 13 9 22t22 9h432q13 0 22 -9t9 -22
v-200q0 -13 -9 -22t-22 -9t-22 9t-9 22z" />
    <glyph glyph-name="afii10022" unicode="&#x415;" 
d="M339 278h-308q-13 0 -22 8.5t-9 21.5v216q0 13 9 22l62 62q7 9 21 9h309q13 0 22 -9t9 -22t-9 -22t-22 -9h-296l-43 -44v-172h277q13 0 22 -9t9 -22t-9 -21.5t-22 -8.5zM401 0h-309q-14 0 -21 9l-62 62q-9 7 -9 21v124q0 13 9 22t22 9t22 -9t9 -22v-111l43 -43h296
q13 0 22 -9t9 -22t-9 -22t-22 -9z" />
    <glyph glyph-name="afii10024" unicode="&#x416;" horiz-adv-x="716" 
d="M356 278h-52l-250 -269q-9 -9 -22 -9t-22 9t-9 22t9 22l260 277q9 9 22 9h52l250 269q9 9 22 9t22 -9t9 -22t-9 -22l-260 -277q-9 -9 -22 -9zM208 348l-198 216q-9 9 -9 22t9 22t22 9t22 -9l198 -216q9 -9 9 -21.5t-9 -22.5q-9 -9 -22 -9t-22 9zM594 9l-198 216
q-9 9 -9 21.5t9 22.5q9 9 22 9t22 -9l198 -216q9 -9 9 -22t-9 -22t-22 -9t-22 9zM293 31v185q0 13 9 22t22 9t22 -9t9 -22v-185q0 -13 -9 -22t-22 -9t-22 9t-9 22zM293 401v190q0 13 9 22t22 9t22 -9t9 -22v-190q0 -13 -9 -22t-22 -9t-22 9t-9 22z" />
    <glyph glyph-name="afii10025" unicode="&#x417;" horiz-adv-x="501" 
d="M423 348l-62 -61q-9 -9 -22 -9h-247q-13 0 -21.5 8.5t-8.5 21.5t8.5 22t21.5 9h234l44 44v128l-44 44h-221l-43 -44v-18q0 -13 -9 -21.5t-22 -8.5t-22 8.5t-9 21.5v31q0 13 9 22l62 62q7 9 21 9h247q13 0 22 -9l62 -62q9 -10 9 -22v-154q0 -12 -9 -22zM423 71l-62 -62
q-9 -9 -22 -9h-247q-14 0 -21 9l-62 62q-9 7 -9 21v31q0 13 9 22t22 9t22 -9t9 -22v-18l43 -43h221l44 43v142q0 13 9 22t22 9t22 -9t9 -22v-155q0 -12 -9 -21z" />
    <glyph glyph-name="afii10026" unicode="&#x418;" 
d="M370 31v247q0 13 9 22t22 9t22 -9t9 -22v-247q0 -13 -9 -22t-22 -9t-22 9t-9 22zM423 379l-370 -370q-14 -14 -34 -6q-19 6 -19 28v555q0 13 9 22t22 9t22 -9t9 -22v-480l308 308v172q0 13 9 22t22 9t22 -9t9 -22v-185q0 -11 -9 -22z" />
    <glyph glyph-name="afii10027" unicode="&#x419;" 
d="M423 379l-370 -370q-14 -14 -34 -6q-19 6 -19 28v555q0 13 9 22t22 9t22 -9t9 -22v-480l308 308v172q0 13 9 22t22 9t22 -9t9 -22v-185q0 -11 -9 -22zM370 31v247q0 13 9 22t22 9t22 -9t9 -22v-247q0 -13 -9 -22t-22 -9t-22 9t-9 22zM322 686l-62 -62q-8 -9 -21 -9h-47
q-14 0 -21 9l-62 62q-9 8 -9 21v13q0 13 9 22t22 9t22 -9t9 -22l43 -43h21l43 43q0 13 9 22t22 9t22 -9t9 -22v-13q0 -13 -9 -21z" />
    <glyph glyph-name="afii10028" unicode="&#x41a;" horiz-adv-x="501" 
d="M0 31v277q0 13 9 22t22 9h80l268 269q9 9 22 9t22 -9t9 -22t-9 -22l-278 -277q-9 -9 -22 -9h-61v-247q0 -13 -9 -22t-22 -9t-22 9t-9 22zM379 9l-216 216q-9 9 -9 21.5t9 22.5q9 9 22 9t22 -9l216 -216q9 -9 9 -22t-9 -22t-22 -9t-22 9zM0 401v185q0 13 9 22t22 9t22 -9
t9 -22v-185q0 -13 -9 -22t-22 -9t-22 9t-9 22z" />
    <glyph glyph-name="afii10029" unicode="&#x41b;" 
d="M370 31v388l-136 136h-36l-136 -136v-388q0 -13 -9 -22t-22 -9t-22 9t-9 22v401q0 13 9 22l154 154q9 9 22 9h62q13 0 22 -9l154 -154q9 -10 9 -22v-401q0 -13 -9 -22t-22 -9t-22 9t-9 22z" />
    <glyph glyph-name="afii10030" unicode="&#x41c;" horiz-adv-x="716" 
d="M0 31v370q0 13 9 22t22 9t22 -9t9 -22v-370q0 -13 -9 -22t-22 -9t-22 9t-9 22zM293 31v249l-231 231v-18q0 -13 -9 -21.5t-22 -8.5t-22 8.5t-9 21.5v93q0 22 19 28q20 8 34 -6l271 -271l271 271q14 14 34 6q19 -7 19 -28v-93q0 -13 -9 -21.5t-22 -8.5t-22 8.5t-9 21.5v18
l-231 -231v-249q0 -13 -9 -22t-22 -9t-22 9t-9 22zM586 31v370q0 13 9 22t22 9t22 -9t9 -22v-370q0 -13 -9 -22t-22 -9t-22 9t-9 22z" />
    <glyph glyph-name="afii10031" unicode="&#x41d;" 
d="M370 401v185q0 13 9 22t22 9t22 -9t9 -22v-185q0 -13 -9 -22t-22 -9t-22 9t-9 22zM0 31v185q0 13 9 22t22 9t22 -9t9 -22v-185q0 -13 -9 -22t-22 -9t-22 9t-9 22zM370 31v247h-339q-13 0 -22 8.5t-9 21.5v278q0 13 9 22t22 9t22 -9t9 -22v-247h339q10 0 19 -6
q12 -11 12 -25v-277q0 -13 -9 -22t-22 -9t-22 9t-9 22z" />
    <glyph glyph-name="afii10032" unicode="&#x41e;" 
d="M170 0h-78q-14 0 -21 9l-62 62q-9 7 -9 21v432q0 13 9 22l62 62q7 9 21 9h78q13 0 21.5 -9t8.5 -22t-8.5 -22t-21.5 -9h-65l-43 -44v-406l43 -43h65q13 0 21.5 -9t8.5 -22t-8.5 -22t-21.5 -9zM423 71l-62 -62q-9 -9 -22 -9h-77q-13 0 -22 9t-9 22t9 22t22 9h64l44 43v406
l-44 44h-64q-13 0 -22 9t-9 22t9 22t22 9h77q13 0 22 -9l62 -62q9 -10 9 -22v-432q0 -12 -9 -21z" />
    <glyph glyph-name="afii10033" unicode="&#x41f;" 
d="M370 31v524h-339q-13 0 -22 9t-9 22t9 21.5t22 8.5h370q13 0 22 -9t9 -22v-554q0 -13 -9 -22t-22 -9t-22 9t-9 22zM0 31v462q0 13 9 22t22 9t22 -9t9 -22v-462q0 -13 -9 -22t-22 -9t-22 9t-9 22z" />
    <glyph glyph-name="afii10034" unicode="&#x420;" 
d="M423 271l-62 -62q-11 -9 -22 -9h-216q-13 0 -22 9t-9 22t9 22t22 9h203l44 44v205l-44 44h-295q-13 0 -22 9t-9 22t9 22t22 9h308q13 0 22 -9l62 -62q9 -10 9 -22v-231q0 -11 -9 -22zM0 31v462q0 13 9 22t22 9t22 -9t9 -22v-462q0 -13 -9 -22t-22 -9t-22 9t-9 22z" />
    <glyph glyph-name="afii10035" unicode="&#x421;" horiz-adv-x="499" 
d="M432 524v-31q0 -13 -9 -21.5t-22 -8.5t-22 8.5t-9 21.5v18l-44 44h-64q-13 0 -22 9t-9 22t9 22t22 9h77q13 0 22 -9l62 -62q9 -10 9 -22zM170 0h-78q-14 0 -21 9l-62 62q-9 7 -9 21v432q0 13 9 22l62 62q7 9 21 9h78q13 0 21.5 -9t8.5 -22t-8.5 -22t-21.5 -9h-65l-43 -44
v-406l43 -43h65q13 0 21.5 -9t8.5 -22t-8.5 -22t-21.5 -9zM423 71l-62 -62q-9 -9 -22 -9h-77q-13 0 -22 9t-9 22t9 22t22 9h64l44 43v18q0 13 9 22t22 9t22 -9t9 -22v-31q0 -12 -9 -21z" />
    <glyph glyph-name="afii10036" unicode="&#x422;" 
d="M185 31v524h-154q-13 0 -22 9t-9 22t9 22t22 9h185q13 0 22 -9t9 -22v-555q0 -13 -9 -22t-22 -9t-22 9t-9 22zM401 555h-93q-13 0 -21.5 9t-8.5 22t8.5 22t21.5 9h93q13 0 22 -9t9 -22t-9 -22t-22 -9z" />
    <glyph glyph-name="afii10037" unicode="&#x423;" 
d="M423 71l-62 -62q-9 -9 -22 -9h-247q-14 0 -21 9l-62 62q-9 7 -9 21v31q0 13 9 22t22 9t22 -9t9 -22v-18l43 -43h221l44 43v481q0 13 9 22t22 9t22 -9t9 -22v-494q0 -12 -9 -21zM308 200h-216q-12 0 -21 9l-62 62q-9 9 -9 22v293q0 13 9 22t22 9t22 -9t9 -22v-280l43 -44
h203q13 0 22 -9t9 -22t-9 -22t-22 -9z" />
    <glyph glyph-name="afii10038" unicode="&#x424;" horiz-adv-x="716" 
d="M639 209l-62 -62q-11 -9 -22 -9h-139q-13 0 -22 9t-9 22t9 22t22 9h126l44 44v205l-44 44h-126q-13 0 -22 9t-9 22t9 22t22 9h139q13 0 22 -9l62 -62q9 -10 9 -22v-231q0 -11 -9 -22zM293 31v108h-200q-13 0 -22 9l-62 62q-9 10 -9 22v231q0 11 9 22l62 62q10 9 22 9h139
q13 0 22 -9t9 -22t-9 -22t-22 -9h-126l-44 -44v-205l44 -44h218q13 0 22 -9t9 -22v-139q0 -13 -9 -22t-22 -9t-22 9t-9 22zM293 262v329q0 13 9 22t22 9t22 -9t9 -22v-329q0 -13 -9 -22t-22 -9t-22 9t-9 22z" />
    <glyph glyph-name="afii10039" unicode="&#x425;" horiz-adv-x="501" 
d="M0 31v92q0 13 9 22l123 124q9 9 22 9t22 -9q9 -10 9 -22.5t-9 -21.5l-114 -114v-80q0 -13 -9 -22t-22 -9t-22 9t-9 22zM370 31v80l-361 361q-9 8 -9 21v93q0 13 9 22t22 9t22 -9t9 -22v-80l361 -361q9 -11 9 -22v-92q0 -13 -9 -22t-22 -9t-22 9t-9 22zM423 472l-124 -124
q-9 -9 -21 -9q-13 0 -22 9t-9 22t9 22l114 114v80q0 13 9 22t22 9t22 -9t9 -22v-93q0 -12 -9 -21z" />
    <glyph glyph-name="afii10040" unicode="&#x426;" 
d="M370 123v463q0 13 9 22t22 9t22 -9t9 -22v-463q0 -13 -9 -22t-22 -9t-22 9t-9 22zM432 -147v147h-401q-13 0 -22 8.5t-9 21.5v556q0 13 9 22t22 9t22 -9t9 -22v-525h401q10 0 19 -6q12 -10 12 -25v-177q0 -13 -9 -22t-22 -9t-22 9t-9 22z" />
    <glyph glyph-name="afii10041" unicode="&#x427;" 
d="M370 31v560q0 13 9 22t22 9t22 -9t9 -22v-560q0 -13 -9 -22t-22 -9t-22 9t-9 22zM309 200h-216q-11 0 -22 9l-62 62q-9 11 -9 22v298q0 13 9 22t22 9t22 -9t9 -22v-285l44 -44h203q13 0 22 -9t9 -22t-9 -22t-22 -9z" />
    <glyph glyph-name="afii10042" unicode="&#x428;" horiz-adv-x="716" 
d="M294 123v463q0 13 9 22t22 9t22 -9t9 -22v-463q0 -13 -9 -22t-22 -9t-22 9t-9 22zM617 0h-586q-13 0 -22 8.5t-9 21.5v556q0 13 9 22t22 9t22 -9t9 -22v-525h524v525q0 13 9 22t22 9t22 -9t9 -22v-556q0 -13 -9 -21.5t-22 -8.5z" />
    <glyph glyph-name="afii10043" unicode="&#x429;" horiz-adv-x="716" 
d="M586 123v463q0 13 9 22t22 9t22 -9t9 -22v-463q0 -13 -9 -22t-22 -9t-22 9t-9 22zM648 -147v147h-617q-13 0 -22 8.5t-9 21.5v556q0 13 9 22t22 9t22 -9t9 -22v-525h617q10 0 19 -6q12 -10 12 -25v-177q0 -13 -9 -22t-22 -9t-22 9t-9 22zM293 123v463q0 13 9 22t22 9
t22 -9t9 -22v-463q0 -13 -9 -22t-22 -9t-22 9t-9 22z" />
    <glyph glyph-name="afii10044" unicode="&#x42a;" horiz-adv-x="626" 
d="M549 71l-62 -62q-9 -9 -22 -9h-308q-13 0 -22 9t-9 22t9 22t22 9h295l44 44v205l-44 44h-203q-13 0 -22 9t-9 22t9 22t22 9h216q11 0 22 -9l62 -62q9 -10 9 -22v-231q0 -11 -9 -22zM126 124v431h-95q-13 0 -22 9t-9 22t9 22t22 9h126q13 0 22 -9t9 -22v-462q0 -13 -9 -22
t-22 -9t-22 9t-9 22z" />
    <glyph glyph-name="afii10045" unicode="&#x42b;" horiz-adv-x="659" 
d="M423 71l-62 -62q-9 -9 -22 -9h-308q-13 0 -22 9t-9 22t9 22t22 9h295l44 44v205l-44 44h-203q-13 0 -22 9t-9 22t9 22t22 9h216q11 0 22 -9l62 -62q9 -10 9 -22v-231q0 -11 -9 -22zM0 124v462q0 13 9 22t22 9t22 -9t9 -22v-462q0 -13 -9 -22t-22 -9t-22 9t-9 22zM530 31
v555q0 13 9 22t22 9t22 -9t9 -22v-555q0 -13 -9 -22t-22 -9t-22 9t-9 22z" />
    <glyph glyph-name="afii10046" unicode="&#x42c;" 
d="M423 71l-62 -62q-9 -9 -22 -9h-308q-13 0 -22 9t-9 22t9 22t22 9h295l44 44v205l-44 44h-203q-13 0 -22 9t-9 22t9 22t22 9h216q11 0 22 -9l62 -62q9 -10 9 -22v-231q0 -11 -9 -22zM0 124v462q0 13 9 22t22 9t22 -9t9 -22v-462q0 -13 -9 -22t-22 -9t-22 9t-9 22z" />
    <glyph glyph-name="afii10047" unicode="&#x42d;" horiz-adv-x="499" 
d="M170 555h-64l-44 -44v-18q0 -13 -9 -21.5t-22 -8.5t-22 8.5t-9 21.5v31q0 12 9 22l62 62q9 9 22 9h77q13 0 22 -9t9 -22t-9 -22t-22 -9zM423 71l-62 -62q-7 -9 -21 -9h-78q-13 0 -21.5 9t-8.5 22t8.5 22t21.5 9h65l43 43v406l-43 44h-65q-13 0 -21.5 9t-8.5 22t8.5 22
t21.5 9h78q14 0 21 -9l62 -62q9 -9 9 -22v-432q0 -14 -9 -21zM170 0h-77q-13 0 -22 9l-62 62q-9 9 -9 21v31q0 13 9 22t22 9t22 -9t9 -22v-18l44 -43h64q13 0 22 -9t9 -22t-9 -22t-22 -9zM308 278h-184q-13 0 -22 8.5t-9 21.5t9 22t22 9h184q13 0 22 -9t9 -22t-9 -21.5
t-22 -8.5z" />
    <glyph glyph-name="afii10048" unicode="&#x42e;" horiz-adv-x="672" 
d="M0 31v185q0 13 9 22t22 9t22 -9t9 -22v-185q0 -13 -9 -22t-22 -9t-22 9t-9 22zM354 555h-54l-43 -44v-110q0 -13 -9 -22t-22 -9t-22 9t-9 22v123q0 13 9 22l62 62q8 9 21 9h67q13 0 21.5 -9t8.5 -22t-8.5 -22t-21.5 -9zM354 0h-67q-13 0 -21 9l-62 62q-9 7 -9 21v186
h-164q-13 0 -22 8.5t-9 21.5v278q0 13 9 22t22 9t22 -9t9 -22v-247h164q10 0 19 -6q12 -11 12 -25v-203l43 -43h54q13 0 21.5 -9t8.5 -22t-8.5 -22t-21.5 -9zM596 71l-62 -62q-9 -9 -22 -9h-66q-13 0 -22 9t-9 22t9 22t22 9h53l44 43v406l-44 44h-53q-13 0 -22 9t-9 22t9 22
t22 9h66q13 0 22 -9l62 -62q9 -10 9 -22v-432q0 -12 -9 -21z" />
    <glyph glyph-name="afii10049" unicode="&#x42f;" 
d="M309 200h-65l-191 -191q-9 -9 -22 -9t-22 9t-9 22t9 22l148 147h-64q-11 0 -22 9l-62 62q-9 11 -9 22v231q0 12 9 22l62 62q9 9 22 9h308q13 0 22 -9t9 -22t-9 -22t-22 -9h-295l-44 -44v-205l44 -44h203q13 0 22 -9t9 -22t-9 -22t-22 -9zM370 31v462q0 13 9 22t22 9
t22 -9t9 -22v-462q0 -13 -9 -22t-22 -9t-22 9t-9 22z" />
    <glyph glyph-name="afii10065" unicode="&#x430;" 
d="M0 31v108q0 13 9 22t22 9t22 -9t9 -22v-108q0 -13 -9 -22t-22 -9t-22 9t-9 22zM370 31v169h-339q-11 0 -22 9q-9 9 -9 22v293q0 13 9 22l62 62q7 9 21 9h247q13 0 22 -9l62 -62q9 -10 9 -22v-200q0 -13 -9 -22t-22 -9t-22 9t-9 22v187l-44 44h-221l-43 -44v-249h339
q13 0 22 -9t9 -22v-200q0 -13 -9 -22t-22 -9t-22 9t-9 22z" />
    <glyph glyph-name="afii10066" unicode="&#x431;" 
d="M423 71l-62 -62q-9 -9 -22 -9h-308q-13 0 -22 9t-9 22t9 22t22 9h295l44 44v205l-44 44h-203q-13 0 -22 9t-9 22t9 22t22 9h216q11 0 22 -9l62 -62q9 -10 9 -22v-231q0 -11 -9 -22zM0 124v462q0 13 9 22t22 9h370q13 0 22 -9t9 -22t-9 -22t-22 -9h-339v-431q0 -13 -9 -22
t-22 -9t-22 9t-9 22z" />
    <glyph glyph-name="afii10067" unicode="&#x432;" 
d="M423 71l-62 -62q-9 -9 -22 -9h-216q-13 0 -22 9t-9 22t9 22t22 9h203l44 43v129l-44 44h-18h-246v-247q0 -13 -9 -22t-22 -9t-22 9t-9 22v462q0 13 9 22t22 9t22 -9t9 -22v-154h234l43 44v128l-43 44h-265q-13 0 -22 9t-9 22t9 22t22 9h277q13 0 22 -9l62 -62q9 -9 9 -22
v-154q0 -13 -9 -22l-25 -24l56 -55q9 -11 9 -22v-155q0 -12 -9 -21z" />
    <glyph glyph-name="afii10068" unicode="&#x433;" horiz-adv-x="501" 
d="M401 555h-370q-13 0 -22 9t-9 22t9 22t22 9h370q13 0 22 -9t9 -22t-9 -22t-22 -9zM0 31v462q0 13 9 22t22 9t22 -9t9 -22v-462q0 -13 -9 -22t-22 -9t-22 9t-9 22z" />
    <glyph glyph-name="afii10069" unicode="&#x434;" 
d="M370 124v431h-110l-136 -136v-295q0 -13 -9 -22t-22 -9t-22 9t-9 22v308q0 13 9 22l154 154q9 9 22 9h155q12 0 21 -9t9 -22v-462q0 -13 -9 -22t-22 -9t-22 9t-9 22zM432 -169v169h-370v-169q0 -13 -9 -22t-22 -9t-22 9t-9 22v200q0 13 9 22t22 9h432q13 0 22 -9t9 -22
v-200q0 -13 -9 -22t-22 -9t-22 9t-9 22z" />
    <glyph glyph-name="afii10070" unicode="&#x435;" 
d="M339 278h-308q-13 0 -22 8.5t-9 21.5v216q0 13 9 22l62 62q7 9 21 9h309q13 0 22 -9t9 -22t-9 -22t-22 -9h-296l-43 -44v-172h277q13 0 22 -9t9 -22t-9 -21.5t-22 -8.5zM401 0h-309q-14 0 -21 9l-62 62q-9 7 -9 21v124q0 13 9 22t22 9t22 -9t9 -22v-111l43 -43h296
q13 0 22 -9t9 -22t-9 -22t-22 -9z" />
    <glyph glyph-name="afii10072" unicode="&#x436;" horiz-adv-x="716" 
d="M356 278h-52l-250 -269q-9 -9 -22 -9t-22 9t-9 22t9 22l260 277q9 9 22 9h52l250 269q9 9 22 9t22 -9t9 -22t-9 -22l-260 -277q-9 -9 -22 -9zM208 348l-198 216q-9 9 -9 22t9 22t22 9t22 -9l198 -216q9 -9 9 -21.5t-9 -22.5q-9 -9 -22 -9t-22 9zM594 9l-198 216
q-9 9 -9 21.5t9 22.5q9 9 22 9t22 -9l198 -216q9 -9 9 -22t-9 -22t-22 -9t-22 9zM293 31v185q0 13 9 22t22 9t22 -9t9 -22v-185q0 -13 -9 -22t-22 -9t-22 9t-9 22zM293 401v190q0 13 9 22t22 9t22 -9t9 -22v-190q0 -13 -9 -22t-22 -9t-22 9t-9 22z" />
    <glyph glyph-name="afii10073" unicode="&#x437;" horiz-adv-x="501" 
d="M423 348l-62 -61q-9 -9 -22 -9h-247q-13 0 -21.5 8.5t-8.5 21.5t8.5 22t21.5 9h234l44 44v128l-44 44h-221l-43 -44v-18q0 -13 -9 -21.5t-22 -8.5t-22 8.5t-9 21.5v31q0 13 9 22l62 62q7 9 21 9h247q13 0 22 -9l62 -62q9 -10 9 -22v-154q0 -12 -9 -22zM423 71l-62 -62
q-9 -9 -22 -9h-247q-14 0 -21 9l-62 62q-9 7 -9 21v31q0 13 9 22t22 9t22 -9t9 -22v-18l43 -43h221l44 43v142q0 13 9 22t22 9t22 -9t9 -22v-155q0 -12 -9 -21z" />
    <glyph glyph-name="afii10074" unicode="&#x438;" 
d="M370 31v247q0 13 9 22t22 9t22 -9t9 -22v-247q0 -13 -9 -22t-22 -9t-22 9t-9 22zM423 379l-370 -370q-14 -14 -34 -6q-19 6 -19 28v555q0 13 9 22t22 9t22 -9t9 -22v-480l308 308v172q0 13 9 22t22 9t22 -9t9 -22v-185q0 -11 -9 -22z" />
    <glyph glyph-name="afii10075" unicode="&#x439;" 
d="M423 379l-370 -370q-14 -14 -34 -6q-19 6 -19 28v555q0 13 9 22t22 9t22 -9t9 -22v-480l308 308v172q0 13 9 22t22 9t22 -9t9 -22v-185q0 -11 -9 -22zM370 31v247q0 13 9 22t22 9t22 -9t9 -22v-247q0 -13 -9 -22t-22 -9t-22 9t-9 22zM322 686l-62 -62q-8 -9 -21 -9h-47
q-14 0 -21 9l-62 62q-9 8 -9 21v13q0 13 9 22t22 9t22 -9t9 -22l43 -43h21l43 43q0 13 9 22t22 9t22 -9t9 -22v-13q0 -13 -9 -21z" />
    <glyph glyph-name="afii10076" unicode="&#x43a;" horiz-adv-x="501" 
d="M0 31v277q0 13 9 22t22 9h80l268 269q9 9 22 9t22 -9t9 -22t-9 -22l-278 -277q-9 -9 -22 -9h-61v-247q0 -13 -9 -22t-22 -9t-22 9t-9 22zM379 9l-216 216q-9 9 -9 21.5t9 22.5q9 9 22 9t22 -9l216 -216q9 -9 9 -22t-9 -22t-22 -9t-22 9zM0 401v185q0 13 9 22t22 9t22 -9
t9 -22v-185q0 -13 -9 -22t-22 -9t-22 9t-9 22z" />
    <glyph glyph-name="afii10077" unicode="&#x43b;" 
d="M370 31v388l-136 136h-36l-136 -136v-388q0 -13 -9 -22t-22 -9t-22 9t-9 22v401q0 13 9 22l154 154q9 9 22 9h62q13 0 22 -9l154 -154q9 -10 9 -22v-401q0 -13 -9 -22t-22 -9t-22 9t-9 22z" />
    <glyph glyph-name="afii10078" unicode="&#x43c;" horiz-adv-x="716" 
d="M0 31v370q0 13 9 22t22 9t22 -9t9 -22v-370q0 -13 -9 -22t-22 -9t-22 9t-9 22zM293 31v249l-231 231v-18q0 -13 -9 -21.5t-22 -8.5t-22 8.5t-9 21.5v93q0 22 19 28q20 8 34 -6l271 -271l271 271q14 14 34 6q19 -7 19 -28v-93q0 -13 -9 -21.5t-22 -8.5t-22 8.5t-9 21.5v18
l-231 -231v-249q0 -13 -9 -22t-22 -9t-22 9t-9 22zM586 31v370q0 13 9 22t22 9t22 -9t9 -22v-370q0 -13 -9 -22t-22 -9t-22 9t-9 22z" />
    <glyph glyph-name="afii10079" unicode="&#x43d;" 
d="M370 401v185q0 13 9 22t22 9t22 -9t9 -22v-185q0 -13 -9 -22t-22 -9t-22 9t-9 22zM0 31v185q0 13 9 22t22 9t22 -9t9 -22v-185q0 -13 -9 -22t-22 -9t-22 9t-9 22zM370 31v247h-339q-13 0 -22 8.5t-9 21.5v278q0 13 9 22t22 9t22 -9t9 -22v-247h339q10 0 19 -6
q12 -11 12 -25v-277q0 -13 -9 -22t-22 -9t-22 9t-9 22z" />
    <glyph glyph-name="afii10080" unicode="&#x43e;" 
d="M170 0h-78q-14 0 -21 9l-62 62q-9 7 -9 21v432q0 13 9 22l62 62q7 9 21 9h78q13 0 21.5 -9t8.5 -22t-8.5 -22t-21.5 -9h-65l-43 -44v-406l43 -43h65q13 0 21.5 -9t8.5 -22t-8.5 -22t-21.5 -9zM423 71l-62 -62q-9 -9 -22 -9h-77q-13 0 -22 9t-9 22t9 22t22 9h64l44 43v406
l-44 44h-64q-13 0 -22 9t-9 22t9 22t22 9h77q13 0 22 -9l62 -62q9 -10 9 -22v-432q0 -12 -9 -21z" />
    <glyph glyph-name="afii10081" unicode="&#x43f;" 
d="M370 31v524h-339q-13 0 -22 9t-9 22t9 21.5t22 8.5h370q13 0 22 -9t9 -22v-554q0 -13 -9 -22t-22 -9t-22 9t-9 22zM0 31v462q0 13 9 22t22 9t22 -9t9 -22v-462q0 -13 -9 -22t-22 -9t-22 9t-9 22z" />
    <glyph glyph-name="afii10082" unicode="&#x440;" 
d="M423 271l-62 -62q-11 -9 -22 -9h-216q-13 0 -22 9t-9 22t9 22t22 9h203l44 44v205l-44 44h-295q-13 0 -22 9t-9 22t9 22t22 9h308q13 0 22 -9l62 -62q9 -10 9 -22v-231q0 -11 -9 -22zM0 31v462q0 13 9 22t22 9t22 -9t9 -22v-462q0 -13 -9 -22t-22 -9t-22 9t-9 22z" />
    <glyph glyph-name="afii10083" unicode="&#x441;" horiz-adv-x="499" 
d="M432 524v-31q0 -13 -9 -21.5t-22 -8.5t-22 8.5t-9 21.5v18l-44 44h-64q-13 0 -22 9t-9 22t9 22t22 9h77q13 0 22 -9l62 -62q9 -10 9 -22zM170 0h-78q-14 0 -21 9l-62 62q-9 7 -9 21v432q0 13 9 22l62 62q7 9 21 9h78q13 0 21.5 -9t8.5 -22t-8.5 -22t-21.5 -9h-65l-43 -44
v-406l43 -43h65q13 0 21.5 -9t8.5 -22t-8.5 -22t-21.5 -9zM423 71l-62 -62q-9 -9 -22 -9h-77q-13 0 -22 9t-9 22t9 22t22 9h64l44 43v18q0 13 9 22t22 9t22 -9t9 -22v-31q0 -12 -9 -21z" />
    <glyph glyph-name="afii10084" unicode="&#x442;" 
d="M185 31v524h-154q-13 0 -22 9t-9 22t9 22t22 9h185q13 0 22 -9t9 -22v-555q0 -13 -9 -22t-22 -9t-22 9t-9 22zM401 555h-93q-13 0 -21.5 9t-8.5 22t8.5 22t21.5 9h93q13 0 22 -9t9 -22t-9 -22t-22 -9z" />
    <glyph glyph-name="afii10085" unicode="&#x443;" 
d="M423 71l-62 -62q-9 -9 -22 -9h-247q-14 0 -21 9l-62 62q-9 7 -9 21v31q0 13 9 22t22 9t22 -9t9 -22v-18l43 -43h221l44 43v481q0 13 9 22t22 9t22 -9t9 -22v-494q0 -12 -9 -21zM308 200h-216q-12 0 -21 9l-62 62q-9 9 -9 22v293q0 13 9 22t22 9t22 -9t9 -22v-280l43 -44
h203q13 0 22 -9t9 -22t-9 -22t-22 -9z" />
    <glyph glyph-name="afii10086" unicode="&#x444;" horiz-adv-x="716" 
d="M639 209l-62 -62q-11 -9 -22 -9h-139q-13 0 -22 9t-9 22t9 22t22 9h126l44 44v205l-44 44h-126q-13 0 -22 9t-9 22t9 22t22 9h139q13 0 22 -9l62 -62q9 -10 9 -22v-231q0 -11 -9 -22zM293 31v108h-200q-13 0 -22 9l-62 62q-9 10 -9 22v231q0 11 9 22l62 62q10 9 22 9h139
q13 0 22 -9t9 -22t-9 -22t-22 -9h-126l-44 -44v-205l44 -44h218q13 0 22 -9t9 -22v-139q0 -13 -9 -22t-22 -9t-22 9t-9 22zM293 262v329q0 13 9 22t22 9t22 -9t9 -22v-329q0 -13 -9 -22t-22 -9t-22 9t-9 22z" />
    <glyph glyph-name="afii10087" unicode="&#x445;" horiz-adv-x="501" 
d="M0 31v92q0 13 9 22l123 124q9 9 22 9t22 -9q9 -10 9 -22.5t-9 -21.5l-114 -114v-80q0 -13 -9 -22t-22 -9t-22 9t-9 22zM370 31v80l-361 361q-9 8 -9 21v93q0 13 9 22t22 9t22 -9t9 -22v-80l361 -361q9 -11 9 -22v-92q0 -13 -9 -22t-22 -9t-22 9t-9 22zM423 472l-124 -124
q-9 -9 -21 -9q-13 0 -22 9t-9 22t9 22l114 114v80q0 13 9 22t22 9t22 -9t9 -22v-93q0 -12 -9 -21z" />
    <glyph glyph-name="afii10088" unicode="&#x446;" 
d="M370 123v463q0 13 9 22t22 9t22 -9t9 -22v-463q0 -13 -9 -22t-22 -9t-22 9t-9 22zM432 -147v147h-401q-13 0 -22 8.5t-9 21.5v556q0 13 9 22t22 9t22 -9t9 -22v-525h401q10 0 19 -6q12 -10 12 -25v-177q0 -13 -9 -22t-22 -9t-22 9t-9 22z" />
    <glyph glyph-name="afii10089" unicode="&#x447;" 
d="M370 31v560q0 13 9 22t22 9t22 -9t9 -22v-560q0 -13 -9 -22t-22 -9t-22 9t-9 22zM309 200h-216q-11 0 -22 9l-62 62q-9 11 -9 22v298q0 13 9 22t22 9t22 -9t9 -22v-285l44 -44h203q13 0 22 -9t9 -22t-9 -22t-22 -9z" />
    <glyph glyph-name="afii10090" unicode="&#x448;" horiz-adv-x="716" 
d="M294 123v463q0 13 9 22t22 9t22 -9t9 -22v-463q0 -13 -9 -22t-22 -9t-22 9t-9 22zM617 0h-586q-13 0 -22 8.5t-9 21.5v556q0 13 9 22t22 9t22 -9t9 -22v-525h524v525q0 13 9 22t22 9t22 -9t9 -22v-556q0 -13 -9 -21.5t-22 -8.5z" />
    <glyph glyph-name="afii10091" unicode="&#x449;" horiz-adv-x="716" 
d="M586 123v463q0 13 9 22t22 9t22 -9t9 -22v-463q0 -13 -9 -22t-22 -9t-22 9t-9 22zM648 -147v147h-617q-13 0 -22 8.5t-9 21.5v556q0 13 9 22t22 9t22 -9t9 -22v-525h617q10 0 19 -6q12 -10 12 -25v-177q0 -13 -9 -22t-22 -9t-22 9t-9 22zM293 123v463q0 13 9 22t22 9
t22 -9t9 -22v-463q0 -13 -9 -22t-22 -9t-22 9t-9 22z" />
    <glyph glyph-name="afii10092" unicode="&#x44a;" horiz-adv-x="626" 
d="M549 71l-62 -62q-9 -9 -22 -9h-308q-13 0 -22 9t-9 22t9 22t22 9h295l44 44v205l-44 44h-203q-13 0 -22 9t-9 22t9 22t22 9h216q11 0 22 -9l62 -62q9 -10 9 -22v-231q0 -11 -9 -22zM126 124v431h-95q-13 0 -22 9t-9 22t9 22t22 9h126q13 0 22 -9t9 -22v-462q0 -13 -9 -22
t-22 -9t-22 9t-9 22z" />
    <glyph glyph-name="afii10093" unicode="&#x44b;" horiz-adv-x="659" 
d="M423 71l-62 -62q-9 -9 -22 -9h-308q-13 0 -22 9t-9 22t9 22t22 9h295l44 44v205l-44 44h-203q-13 0 -22 9t-9 22t9 22t22 9h216q11 0 22 -9l62 -62q9 -10 9 -22v-231q0 -11 -9 -22zM0 124v462q0 13 9 22t22 9t22 -9t9 -22v-462q0 -13 -9 -22t-22 -9t-22 9t-9 22zM530 31
v555q0 13 9 22t22 9t22 -9t9 -22v-555q0 -13 -9 -22t-22 -9t-22 9t-9 22z" />
    <glyph glyph-name="afii10094" unicode="&#x44c;" 
d="M423 71l-62 -62q-9 -9 -22 -9h-308q-13 0 -22 9t-9 22t9 22t22 9h295l44 44v205l-44 44h-203q-13 0 -22 9t-9 22t9 22t22 9h216q11 0 22 -9l62 -62q9 -10 9 -22v-231q0 -11 -9 -22zM0 124v462q0 13 9 22t22 9t22 -9t9 -22v-462q0 -13 -9 -22t-22 -9t-22 9t-9 22z" />
    <glyph glyph-name="afii10095" unicode="&#x44d;" horiz-adv-x="499" 
d="M170 555h-64l-44 -44v-18q0 -13 -9 -21.5t-22 -8.5t-22 8.5t-9 21.5v31q0 12 9 22l62 62q9 9 22 9h77q13 0 22 -9t9 -22t-9 -22t-22 -9zM423 71l-62 -62q-7 -9 -21 -9h-78q-13 0 -21.5 9t-8.5 22t8.5 22t21.5 9h65l43 43v406l-43 44h-65q-13 0 -21.5 9t-8.5 22t8.5 22
t21.5 9h78q14 0 21 -9l62 -62q9 -9 9 -22v-432q0 -14 -9 -21zM170 0h-77q-13 0 -22 9l-62 62q-9 9 -9 21v31q0 13 9 22t22 9t22 -9t9 -22v-18l44 -43h64q13 0 22 -9t9 -22t-9 -22t-22 -9zM308 278h-184q-13 0 -22 8.5t-9 21.5t9 22t22 9h184q13 0 22 -9t9 -22t-9 -21.5
t-22 -8.5z" />
    <glyph glyph-name="afii10096" unicode="&#x44e;" horiz-adv-x="672" 
d="M0 31v185q0 13 9 22t22 9t22 -9t9 -22v-185q0 -13 -9 -22t-22 -9t-22 9t-9 22zM354 555h-54l-43 -44v-110q0 -13 -9 -22t-22 -9t-22 9t-9 22v123q0 13 9 22l62 62q8 9 21 9h67q13 0 21.5 -9t8.5 -22t-8.5 -22t-21.5 -9zM354 0h-67q-13 0 -21 9l-62 62q-9 7 -9 21v186
h-164q-13 0 -22 8.5t-9 21.5v278q0 13 9 22t22 9t22 -9t9 -22v-247h164q10 0 19 -6q12 -11 12 -25v-203l43 -43h54q13 0 21.5 -9t8.5 -22t-8.5 -22t-21.5 -9zM596 71l-62 -62q-9 -9 -22 -9h-66q-13 0 -22 9t-9 22t9 22t22 9h53l44 43v406l-44 44h-53q-13 0 -22 9t-9 22t9 22
t22 9h66q13 0 22 -9l62 -62q9 -10 9 -22v-432q0 -12 -9 -21z" />
    <glyph glyph-name="afii10097" unicode="&#x44f;" 
d="M309 200h-65l-191 -191q-9 -9 -22 -9t-22 9t-9 22t9 22l148 147h-64q-11 0 -22 9l-62 62q-9 11 -9 22v231q0 12 9 22l62 62q9 9 22 9h308q13 0 22 -9t9 -22t-9 -22t-22 -9h-295l-44 -44v-205l44 -44h203q13 0 22 -9t9 -22t-9 -22t-22 -9zM370 31v462q0 13 9 22t22 9
t22 -9t9 -22v-462q0 -13 -9 -22t-22 -9t-22 9t-9 22z" />
    <glyph glyph-name="afii10071" unicode="&#x451;" 
d="M342 691q0 -13 -9 -22t-22 -9t-22 9t-9 22t9 22t22 9t22 -9t9 -22zM172 691q0 -13 -9 -22t-22 -9t-22 9t-9 22t9 22t22 9t22 -9t9 -22zM339 278h-308q-13 0 -22 8.5t-9 21.5v216q0 13 9 22l62 62q7 9 21 9h309q13 0 22 -9t9 -22t-9 -22t-22 -9h-296l-43 -44v-172h277
q13 0 22 -9t9 -22t-9 -21.5t-22 -8.5zM401 0h-309q-14 0 -21 9l-62 62q-9 7 -9 21v124q0 13 9 22t22 9t22 -9t9 -22v-111l43 -43h296q13 0 22 -9t9 -22t-9 -22t-22 -9z" />
    <glyph glyph-name="afii10101" unicode="&#x454;" horiz-adv-x="499" 
d="M432 524v-31q0 -13 -9 -21.5t-22 -8.5t-22 8.5t-9 21.5v18l-44 44h-64q-13 0 -22 9t-9 22t9 22t22 9h77q13 0 22 -9l62 -62q9 -10 9 -22zM170 0h-78q-14 0 -21 9l-62 62q-9 7 -9 21v432q0 13 9 22l62 62q7 9 21 9h78q13 0 21.5 -9t8.5 -22t-8.5 -22t-21.5 -9h-65l-43 -44
v-406l43 -43h65q13 0 21.5 -9t8.5 -22t-8.5 -22t-21.5 -9zM423 71l-62 -62q-9 -9 -22 -9h-77q-13 0 -22 9t-9 22t9 22t22 9h64l44 43v18q0 13 9 22t22 9t22 -9t9 -22v-31q0 -12 -9 -21zM308 278h-184q-13 0 -22 8.5t-9 21.5t9 22t22 9h184q13 0 22 -9t9 -22t-9 -21.5
t-22 -8.5z" />
    <glyph glyph-name="afii10102" unicode="&#x455;" 
d="M432 524v-31q0 -13 -9 -21.5t-22 -8.5t-22 8.5t-9 21.5v18l-44 44h-64q-13 0 -22 9t-9 22t9 22t22 9h77q13 0 22 -9l62 -62q9 -10 9 -22zM423 71l-62 -62q-9 -9 -22 -9h-77q-13 0 -22 9t-9 22t9 22t22 9h64l44 43v106l-351 146q-19 7 -19 28v139q0 13 9 22l62 62
q7 9 21 9h78q13 0 21.5 -9t8.5 -22t-8.5 -22t-21.5 -9h-65l-43 -44v-105l351 -146q19 -9 19 -29v-139q0 -12 -9 -21zM170 0h-78q-14 0 -21 9l-62 62q-9 7 -9 21v31q0 13 9 22t22 9t22 -9t9 -22v-18l43 -43h65q13 0 21.5 -9t8.5 -22t-8.5 -22t-21.5 -9z" />
    <glyph glyph-name="afii10103" unicode="&#x456;" horiz-adv-x="284" 
d="M185 0h-154q-13 0 -22 9t-9 22t9 22t22 9h46v493h-46q-13 0 -22 9t-9 22t9 22t22 9h154q13 0 22 -9t9 -22t-9 -22t-22 -9h-46v-493h46q13 0 22 -9t9 -22t-9 -22t-22 -9z" />
    <glyph glyph-name="afii10104" unicode="&#x457;" horiz-adv-x="284" 
d="M185 660q-13 0 -22 9t-9 22t9 22t22 9t22 -9t9 -22t-9 -22t-22 -9zM31 660q-13 0 -22 9t-9 22t9 22t22 9t22 -9t9 -22t-9 -22t-22 -9zM185 0h-154q-13 0 -22 9t-9 22t9 22t22 9h46v493h-46q-13 0 -22 9t-9 22t9 22t22 9h154q13 0 22 -9t9 -22t-9 -22t-22 -9h-46v-493h46
q13 0 22 -9t9 -22t-9 -22t-22 -9z" />
    <glyph glyph-name="afii10105" unicode="&#x458;" 
d="M423 71l-62 -62q-9 -9 -22 -9h-247q-14 0 -21 9l-62 62q-9 7 -9 21v31q0 13 9 22t22 9t22 -9t9 -22v-18l43 -43h221l44 43v450h-123q-13 0 -22 9t-9 22t9 22t22 9h154q13 0 22 -9t9 -22v-494q0 -12 -9 -21z" />
    <glyph glyph-name="afii10050" unicode="&#x490;" horiz-adv-x="501" 
d="M401 555h-370q-13 0 -22 9t-9 22t9 22t22 9h339v103q0 13 9 22t22 9t22 -9t9 -22v-134q0 -13 -9 -22t-22 -9zM0 31v462q0 13 9 22t22 9t22 -9t9 -22v-462q0 -13 -9 -22t-22 -9t-22 9t-9 22z" />
    <glyph glyph-name="afii10098" unicode="&#x491;" horiz-adv-x="501" 
d="M401 555h-370q-13 0 -22 9t-9 22t9 22t22 9h339v103q0 13 9 22t22 9t22 -9t9 -22v-134q0 -13 -9 -22t-22 -9zM0 31v462q0 13 9 22t22 9t22 -9t9 -22v-462q0 -13 -9 -22t-22 -9t-22 9t-9 22z" />
    <glyph glyph-name="CR" horiz-adv-x="250" 
 />
  </font>
</defs>
</svg>
